# xmcd
#
# Track frame offsets: 
#        150
#        24724
#        38627
#        52545
#        64429
#        79216
#        96412
#        109917
#        121729
#        140296
#        152268
#
# Disc length: 2193 seconds
#
# Revision: 0
# Processed by: cddbd v1.5.2PL0 Copyright (c) Steve Scherf et al.
# Submitted via: ExactAudioCopyFreeDBPlugin 1.0
#
DISCID=85088f0b
DTITLE=John Lisi and Delta Funk - Take It To The Bridge
DYEAR=2013
DGENRE=Blues
TTITLE0=Chicken Fried Steak
TTITLE1=Break In The Rain
TTITLE2=I'll Make You an Offer
TTITLE3=Funky Ol' Mule
TTITLE4=Got Cleaned Up
TTITLE5=Truth Be Told
TTITLE6=Cheap Ass Wine
TTITLE7=Broke Down Buick
TTITLE8=Pink Haired Space Girl
TTITLE9=Dirty Money
TTITLE10=She Was Drunk
EXTD=
EXTT0=
EXTT1=
EXTT2=
EXTT3=
EXTT4=
EXTT5=
EXTT6=
EXTT7=
EXTT8=
EXTT9=
EXTT10=
PLAYORDER=
